<svg xmlns="http://www.w3.org/2000/svg" width="800" height="500" viewBox="0 0 800 500">
  <rect width="800" height="500" fill="#0a0a0a"/>
  <rect x="1" y="1" width="798" height="498" fill="none" stroke="#1e1e1e" stroke-width="2"/>
  <g transform="translate(400,250)" opacity="0.18">
    <path d="M-160,-40 L-130,-80 Q-120,-95 -100,-95 L100,-95 Q120,-95 130,-80 L160,-40 L180,-40 Q195,-40 195,-25 L195,15 Q195,30 180,30 L160,30 L155,50 Q148,65 130,65 L110,65 Q92,65 85,50 L80,30 L-80,30 L-85,50 Q-92,65 -110,65 L-130,65 Q-148,65 -155,50 L-160,30 L-180,30 Q-195,30 -195,15 L-195,-25 Q-195,-40 -180,-40 Z" fill="#2a2a2a" stroke="#333" stroke-width="2"/>
    <path d="M-120,-80 L-90,-95 L90,-95 L120,-80 L140,-40 L-140,-40 Z" fill="#222"/>
    <circle cx="-110" cy="55" r="28" fill="#1a1a1a" stroke="#333" stroke-width="3"/>
    <circle cx="-110" cy="55" r="14" fill="#111"/>
    <circle cx="110" cy="55" r="28" fill="#1a1a1a" stroke="#333" stroke-width="3"/>
    <circle cx="110" cy="55" r="14" fill="#111"/>
    <rect x="-50" y="-88" width="100" height="45" rx="4" fill="#111" opacity="0.6"/>
  </g>
  <text x="400" y="390" text-anchor="middle" font-family="Arial,sans-serif" font-size="13" fill="#333" letter-spacing="3">BRAK ZDJĘCIA</text>
</svg>
